<mxfile host="app.diagrams.net" modified="2020-08-06T13:56:24.224Z" agent="5.0 (Windows NT 10.0; Win64; x64) AppleWebKit/537.36 (KHTML, like Gecko) Chrome/84.0.4147.105 Safari/537.36" etag="6RU-Fx5EMUOVgRFbZFkh" version="13.6.0" type="github">
  <diagram id="F1H3thS-GcHXWZyNJWeb" name="Page-1">
    <mxGraphModel dx="1038" dy="499" grid="1" gridSize="10" guides="1" tooltips="1" connect="1" arrows="1" fold="1" page="1" pageScale="1" pageWidth="850" pageHeight="1100" math="0" shadow="0" extFonts="Old Standard TT^https://fonts.googleapis.com/css?family=Old+Standard+TT">
      <root>
        <mxCell id="0" />
        <mxCell id="1" parent="0" />
        <mxCell id="Guvlshm8ceDl_RnXOLE1-23" value="" style="pointerEvents=1;shadow=0;dashed=0;html=1;strokeColor=none;fillColor=#505050;labelPosition=center;verticalLabelPosition=bottom;verticalAlign=top;outlineConnect=0;align=center;shape=mxgraph.office.users.users;" vertex="1" parent="1">
          <mxGeometry x="600" y="471" width="80" height="80" as="geometry" />
        </mxCell>
        <mxCell id="Guvlshm8ceDl_RnXOLE1-24" value="&lt;span style=&quot;font-size: 15px&quot;&gt;&lt;b&gt;IP Support Team&lt;/b&gt;&lt;/span&gt;" style="text;html=1;strokeColor=none;fillColor=none;align=center;verticalAlign=middle;whiteSpace=wrap;rounded=0;fontFamily=Old Standard TT;FType=g;" vertex="1" parent="1">
          <mxGeometry x="580" y="551" width="120" height="40" as="geometry" />
        </mxCell>
        <mxCell id="Guvlshm8ceDl_RnXOLE1-25" value="" style="pointerEvents=1;shadow=0;dashed=0;html=1;strokeColor=none;fillColor=#505050;labelPosition=center;verticalLabelPosition=bottom;verticalAlign=top;outlineConnect=0;align=center;shape=mxgraph.office.users.user;" vertex="1" parent="1">
          <mxGeometry x="422" y="500.5" width="46" height="50" as="geometry" />
        </mxCell>
        <mxCell id="Guvlshm8ceDl_RnXOLE1-27" value="" style="shape=note;whiteSpace=wrap;html=1;backgroundOutline=1;darkOpacity=0.05;size=9;" vertex="1" parent="1">
          <mxGeometry x="512.5" y="481.5" width="25" height="30" as="geometry" />
        </mxCell>
        <mxCell id="Guvlshm8ceDl_RnXOLE1-30" value="" style="pointerEvents=1;shadow=0;dashed=0;html=1;strokeColor=none;fillColor=#505050;labelPosition=center;verticalLabelPosition=bottom;verticalAlign=top;outlineConnect=0;align=center;shape=mxgraph.office.services.user_services;" vertex="1" parent="1">
          <mxGeometry x="245.5" y="491" width="59" height="59" as="geometry" />
        </mxCell>
        <mxCell id="Guvlshm8ceDl_RnXOLE1-32" value="" style="pointerEvents=1;shadow=0;dashed=0;html=1;strokeColor=none;labelPosition=center;verticalLabelPosition=bottom;verticalAlign=top;outlineConnect=0;align=center;shape=mxgraph.office.users.user;fillColor=#2072B8;" vertex="1" parent="1">
          <mxGeometry x="102" y="500.5" width="46" height="50" as="geometry" />
        </mxCell>
        <mxCell id="Guvlshm8ceDl_RnXOLE1-33" value="&lt;font style=&quot;font-size: 15px&quot; face=&quot;Old Standard TT&quot;&gt;&lt;b&gt;Customer&lt;/b&gt;&lt;/font&gt;" style="text;html=1;strokeColor=none;fillColor=none;align=center;verticalAlign=middle;whiteSpace=wrap;rounded=0;" vertex="1" parent="1">
          <mxGeometry x="90" y="550" width="70" height="40" as="geometry" />
        </mxCell>
        <mxCell id="Guvlshm8ceDl_RnXOLE1-34" value="&lt;font style=&quot;font-size: 15px&quot; face=&quot;Old Standard TT&quot;&gt;&lt;b&gt;Manager&lt;/b&gt;&lt;/font&gt;" style="text;html=1;strokeColor=none;fillColor=none;align=center;verticalAlign=middle;whiteSpace=wrap;rounded=0;" vertex="1" parent="1">
          <mxGeometry x="240" y="550" width="70" height="40" as="geometry" />
        </mxCell>
        <mxCell id="Guvlshm8ceDl_RnXOLE1-35" value="&lt;font style=&quot;font-size: 15px&quot; face=&quot;Old Standard TT&quot;&gt;&lt;b&gt;IP Engineer&lt;/b&gt;&lt;/font&gt;" style="text;html=1;strokeColor=none;fillColor=none;align=center;verticalAlign=middle;whiteSpace=wrap;rounded=0;" vertex="1" parent="1">
          <mxGeometry x="400" y="550.5" width="90" height="40" as="geometry" />
        </mxCell>
        <mxCell id="Guvlshm8ceDl_RnXOLE1-36" value="" style="ellipse;shape=cloud;whiteSpace=wrap;html=1;" vertex="1" parent="1">
          <mxGeometry x="790" y="491" width="100" height="69" as="geometry" />
        </mxCell>
        <mxCell id="Guvlshm8ceDl_RnXOLE1-37" value="&lt;font face=&quot;Old Standard TT&quot; size=&quot;1&quot;&gt;&lt;b style=&quot;font-size: 15px&quot;&gt;Network&lt;/b&gt;&lt;/font&gt;" style="text;html=1;strokeColor=none;fillColor=none;align=center;verticalAlign=middle;whiteSpace=wrap;rounded=0;" vertex="1" parent="1">
          <mxGeometry x="800" y="500.5" width="80" height="50" as="geometry" />
        </mxCell>
        <mxCell id="Guvlshm8ceDl_RnXOLE1-39" value="" style="endArrow=classic;html=1;" edge="1" parent="1">
          <mxGeometry relative="1" as="geometry">
            <mxPoint x="150" y="530.5" as="sourcePoint" />
            <mxPoint x="240" y="530.5" as="targetPoint" />
          </mxGeometry>
        </mxCell>
        <mxCell id="Guvlshm8ceDl_RnXOLE1-40" value="Request" style="edgeLabel;resizable=0;html=1;align=center;verticalAlign=middle;fontFamily=Old Standard TT;fontStyle=1;fontSize=12;" connectable="0" vertex="1" parent="Guvlshm8ceDl_RnXOLE1-39">
          <mxGeometry relative="1" as="geometry">
            <mxPoint as="offset" />
          </mxGeometry>
        </mxCell>
        <mxCell id="Guvlshm8ceDl_RnXOLE1-41" value="" style="endArrow=classic;html=1;" edge="1" parent="1">
          <mxGeometry relative="1" as="geometry">
            <mxPoint x="310" y="530.5" as="sourcePoint" />
            <mxPoint x="400" y="530.5" as="targetPoint" />
          </mxGeometry>
        </mxCell>
        <mxCell id="Guvlshm8ceDl_RnXOLE1-42" value="Assign" style="edgeLabel;resizable=0;html=1;align=center;verticalAlign=middle;fontFamily=Old Standard TT;fontStyle=1;fontSize=12;" connectable="0" vertex="1" parent="Guvlshm8ceDl_RnXOLE1-41">
          <mxGeometry relative="1" as="geometry" />
        </mxCell>
        <mxCell id="Guvlshm8ceDl_RnXOLE1-43" value="" style="endArrow=classic;html=1;" edge="1" parent="1">
          <mxGeometry relative="1" as="geometry">
            <mxPoint x="480" y="530.5" as="sourcePoint" />
            <mxPoint x="570" y="530.5" as="targetPoint" />
          </mxGeometry>
        </mxCell>
        <mxCell id="Guvlshm8ceDl_RnXOLE1-44" value="Genrate&lt;br style=&quot;font-size: 12px;&quot;&gt;Workorder" style="edgeLabel;resizable=0;html=1;align=center;verticalAlign=middle;fontFamily=Old Standard TT;fontStyle=1;fontSize=12;" connectable="0" vertex="1" parent="Guvlshm8ceDl_RnXOLE1-43">
          <mxGeometry relative="1" as="geometry">
            <mxPoint as="offset" />
          </mxGeometry>
        </mxCell>
        <mxCell id="Guvlshm8ceDl_RnXOLE1-45" value="" style="endArrow=classic;html=1;" edge="1" parent="1">
          <mxGeometry relative="1" as="geometry">
            <mxPoint x="690" y="530" as="sourcePoint" />
            <mxPoint x="780" y="530" as="targetPoint" />
          </mxGeometry>
        </mxCell>
        <mxCell id="Guvlshm8ceDl_RnXOLE1-46" value="Push" style="edgeLabel;resizable=0;html=1;align=center;verticalAlign=middle;fontFamily=Old Standard TT;fontStyle=1;fontSize=12;" connectable="0" vertex="1" parent="Guvlshm8ceDl_RnXOLE1-45">
          <mxGeometry relative="1" as="geometry">
            <mxPoint as="offset" />
          </mxGeometry>
        </mxCell>
      </root>
    </mxGraphModel>
  </diagram>
</mxfile>
